<mxfile host="app.diagrams.net" agent="Mozilla/5.0 (Windows NT 10.0; Win64; x64; rv:130.0) Gecko/20100101 Firefox/130.0" version="24.7.12">
  <diagram name="Page-1" id="HaNUL1jdEgyW-jIHec6N">
    <mxGraphModel dx="1658" dy="538" grid="1" gridSize="10" guides="1" tooltips="1" connect="1" arrows="1" fold="1" page="1" pageScale="1" pageWidth="850" pageHeight="1100" math="0" shadow="0">
      <root>
        <mxCell id="0" />
        <mxCell id="1" parent="0" />
        <mxCell id="bEZxc9TnVDWhS3Ql7pLe-73" value="" style="shape=cube;whiteSpace=wrap;html=1;boundedLbl=1;backgroundOutline=1;darkOpacity=0.05;darkOpacity2=0.1;rotation=0;fillColor=#d5e8d4;strokeColor=#82b366;opacity=75;shadow=1;flipH=1;size=7;fillStyle=auto;flipV=0;" vertex="1" parent="1">
          <mxGeometry x="350" y="293" width="122.25" height="25" as="geometry" />
        </mxCell>
        <mxCell id="bEZxc9TnVDWhS3Ql7pLe-64" value="" style="shape=cube;whiteSpace=wrap;html=1;boundedLbl=1;backgroundOutline=1;darkOpacity=0.05;darkOpacity2=0.1;rotation=0;fillColor=#dae8fc;strokeColor=#6c8ebf;opacity=75;shadow=1;flipH=1;size=20;" vertex="1" parent="1">
          <mxGeometry x="340" y="270.08" width="140" height="57.97" as="geometry" />
        </mxCell>
        <mxCell id="bEZxc9TnVDWhS3Ql7pLe-65" value="5" style="text;html=1;align=center;verticalAlign=middle;whiteSpace=wrap;rounded=0;opacity=50;fillColor=none;fontFamily=Times New Roman;rotation=0;fontSize=10;" vertex="1" parent="1">
          <mxGeometry x="310" y="313.59" width="50" height="22.81" as="geometry" />
        </mxCell>
        <mxCell id="bEZxc9TnVDWhS3Ql7pLe-56" value="" style="endArrow=none;html=1;rounded=0;strokeWidth=1;endSize=27;startSize=6;dashed=1;dashPattern=1 2;" edge="1" parent="1">
          <mxGeometry width="50" height="50" relative="1" as="geometry">
            <mxPoint x="110" y="260" as="sourcePoint" />
            <mxPoint x="160" y="283" as="targetPoint" />
          </mxGeometry>
        </mxCell>
        <mxCell id="bEZxc9TnVDWhS3Ql7pLe-50" value="" style="shape=cube;whiteSpace=wrap;html=1;boundedLbl=1;backgroundOutline=1;darkOpacity=0.05;darkOpacity2=0.1;rotation=0;fillColor=#d5e8d4;strokeColor=#82b366;opacity=75;shadow=1;flipH=1;size=6;fillStyle=auto;" vertex="1" parent="1">
          <mxGeometry x="165" y="291.09" width="140" height="22.5" as="geometry" />
        </mxCell>
        <mxCell id="bEZxc9TnVDWhS3Ql7pLe-2" value="" style="shape=cube;whiteSpace=wrap;html=1;boundedLbl=1;backgroundOutline=1;darkOpacity=0.05;darkOpacity2=0.1;rotation=0;fillColor=#dae8fc;strokeColor=#6c8ebf;opacity=75;shadow=1;flipH=1;" vertex="1" parent="1">
          <mxGeometry x="160" y="257.19" width="150" height="83.75" as="geometry" />
        </mxCell>
        <mxCell id="bEZxc9TnVDWhS3Ql7pLe-72" value="" style="endArrow=none;html=1;rounded=1;exitX=1;exitY=0.66;exitDx=0;exitDy=0;exitPerimeter=0;targetPerimeterSpacing=10;curved=0;fillColor=#f5f5f5;gradientColor=#b3b3b3;strokeColor=#000000;dashed=1;dashPattern=1 2;" edge="1" parent="1">
          <mxGeometry width="50" height="50" relative="1" as="geometry">
            <mxPoint x="299" y="313.5" as="sourcePoint" />
            <mxPoint x="342" y="302" as="targetPoint" />
          </mxGeometry>
        </mxCell>
        <mxCell id="bEZxc9TnVDWhS3Ql7pLe-71" value="" style="endArrow=none;html=1;rounded=1;exitX=1;exitY=0.66;exitDx=0;exitDy=0;exitPerimeter=0;targetPerimeterSpacing=10;curved=0;fillColor=#f5f5f5;gradientColor=#b3b3b3;strokeColor=#000000;dashed=1;dashPattern=1 2;" edge="1" parent="1">
          <mxGeometry width="50" height="50" relative="1" as="geometry">
            <mxPoint x="305" y="292" as="sourcePoint" />
            <mxPoint x="340" y="299" as="targetPoint" />
          </mxGeometry>
        </mxCell>
        <mxCell id="bEZxc9TnVDWhS3Ql7pLe-35" value="" style="shape=cube;whiteSpace=wrap;html=1;boundedLbl=1;backgroundOutline=1;darkOpacity=0.05;darkOpacity2=0.1;rotation=0;opacity=75;shadow=1;size=90;flipH=1;fillColor=#dae8fc;strokeColor=#6c8ebf;" vertex="1" parent="1">
          <mxGeometry x="-10" y="210" width="100" height="204.37" as="geometry" />
        </mxCell>
        <mxCell id="bEZxc9TnVDWhS3Ql7pLe-27" value="98" style="text;html=1;align=center;verticalAlign=middle;whiteSpace=wrap;rounded=0;opacity=50;fillColor=none;fontFamily=Times New Roman;rotation=-45;" vertex="1" parent="1">
          <mxGeometry x="10" y="260" width="60" height="30" as="geometry" />
        </mxCell>
        <mxCell id="bEZxc9TnVDWhS3Ql7pLe-36" value="36" style="text;html=1;align=center;verticalAlign=middle;whiteSpace=wrap;rounded=0;opacity=50;fillColor=none;fontFamily=Times New Roman;rotation=0;" vertex="1" parent="1">
          <mxGeometry x="-20" y="325" width="60" height="30" as="geometry" />
        </mxCell>
        <mxCell id="bEZxc9TnVDWhS3Ql7pLe-37" value="" style="shape=cube;whiteSpace=wrap;html=1;boundedLbl=1;backgroundOutline=1;darkOpacity=0.05;darkOpacity2=0.1;rotation=0;fillColor=#76608a;strokeColor=#432D57;opacity=75;shadow=1;flipH=1;size=29;fontColor=#ffffff;" vertex="1" parent="1">
          <mxGeometry x="80" y="260" width="30" height="52.5" as="geometry" />
        </mxCell>
        <mxCell id="bEZxc9TnVDWhS3Ql7pLe-60" value="" style="endArrow=none;html=1;rounded=1;exitX=1;exitY=0.66;exitDx=0;exitDy=0;exitPerimeter=0;targetPerimeterSpacing=10;curved=0;fillColor=#f5f5f5;gradientColor=#b3b3b3;strokeColor=#000000;dashed=1;dashPattern=1 2;" edge="1" parent="1">
          <mxGeometry width="50" height="50" relative="1" as="geometry">
            <mxPoint x="80" y="289.28" as="sourcePoint" />
            <mxPoint x="160" y="284" as="targetPoint" />
          </mxGeometry>
        </mxCell>
        <mxCell id="bEZxc9TnVDWhS3Ql7pLe-39" value="" style="shape=cube;whiteSpace=wrap;html=1;boundedLbl=1;backgroundOutline=1;darkOpacity=0.05;darkOpacity2=0.1;rotation=0;fillColor=#d0cee2;strokeColor=default;opacity=75;shadow=1;flipH=1;size=29;dashed=1;dashPattern=1 2;" vertex="1" parent="1">
          <mxGeometry x="50" y="260" width="30" height="52.5" as="geometry" />
        </mxCell>
        <mxCell id="bEZxc9TnVDWhS3Ql7pLe-38" value="" style="endArrow=none;dashed=1;html=1;rounded=0;exitX=0;exitY=0;exitDx=30;exitDy=29;exitPerimeter=0;" edge="1" parent="1" source="bEZxc9TnVDWhS3Ql7pLe-39">
          <mxGeometry width="50" height="50" relative="1" as="geometry">
            <mxPoint x="60" y="290" as="sourcePoint" />
            <mxPoint x="80" y="290" as="targetPoint" />
          </mxGeometry>
        </mxCell>
        <mxCell id="bEZxc9TnVDWhS3Ql7pLe-40" value="" style="endArrow=none;dashed=1;html=1;rounded=0;exitX=0;exitY=0;exitDx=30;exitDy=29;exitPerimeter=0;" edge="1" parent="1">
          <mxGeometry width="50" height="50" relative="1" as="geometry">
            <mxPoint x="50" y="311.5" as="sourcePoint" />
            <mxPoint x="80" y="312.5" as="targetPoint" />
          </mxGeometry>
        </mxCell>
        <mxCell id="bEZxc9TnVDWhS3Ql7pLe-41" value="" style="endArrow=none;dashed=1;html=1;rounded=0;exitX=0;exitY=0;exitDx=30;exitDy=29;exitPerimeter=0;" edge="1" parent="1">
          <mxGeometry width="50" height="50" relative="1" as="geometry">
            <mxPoint x="80" y="260" as="sourcePoint" />
            <mxPoint x="110" y="261" as="targetPoint" />
          </mxGeometry>
        </mxCell>
        <mxCell id="bEZxc9TnVDWhS3Ql7pLe-42" value="" style="endArrow=none;dashed=1;html=1;rounded=0;exitX=0;exitY=0;exitDx=0;exitDy=23.5;exitPerimeter=0;entryX=0;entryY=0;entryDx=0;entryDy=23.5;entryPerimeter=0;" edge="1" parent="1" source="bEZxc9TnVDWhS3Ql7pLe-39" target="bEZxc9TnVDWhS3Ql7pLe-37">
          <mxGeometry width="50" height="50" relative="1" as="geometry">
            <mxPoint x="80" y="285.75" as="sourcePoint" />
            <mxPoint x="110" y="286.75" as="targetPoint" />
          </mxGeometry>
        </mxCell>
        <mxCell id="bEZxc9TnVDWhS3Ql7pLe-43" value="24" style="text;html=1;align=center;verticalAlign=middle;whiteSpace=wrap;rounded=0;opacity=50;fillColor=none;fontFamily=Times New Roman;rotation=-45;fontSize=10;" vertex="1" parent="1">
          <mxGeometry x="80" y="290.78" width="50" height="22.81" as="geometry" />
        </mxCell>
        <mxCell id="bEZxc9TnVDWhS3Ql7pLe-44" value="10" style="text;html=1;align=center;verticalAlign=middle;whiteSpace=wrap;rounded=0;opacity=50;fillColor=none;fontFamily=Times New Roman;rotation=0;fontSize=10;" vertex="1" parent="1">
          <mxGeometry x="94" y="260" width="50" height="22.81" as="geometry" />
        </mxCell>
        <mxCell id="bEZxc9TnVDWhS3Ql7pLe-46" value="Spectrogram" style="text;html=1;align=center;verticalAlign=middle;whiteSpace=wrap;rounded=0;opacity=50;fillColor=none;fontFamily=Times New Roman;rotation=-89;" vertex="1" parent="1">
          <mxGeometry x="-50" y="343.75" width="60" height="30" as="geometry" />
        </mxCell>
        <mxCell id="bEZxc9TnVDWhS3Ql7pLe-47" value="1" style="text;html=1;align=center;verticalAlign=middle;whiteSpace=wrap;rounded=0;opacity=50;fillColor=none;fontFamily=Times New Roman;rotation=0;" vertex="1" parent="1">
          <mxGeometry x="-35" y="410" width="60" height="30" as="geometry" />
        </mxCell>
        <mxCell id="bEZxc9TnVDWhS3Ql7pLe-48" value="Max-Pooling" style="text;html=1;align=center;verticalAlign=middle;whiteSpace=wrap;rounded=0;opacity=50;fillColor=none;fontFamily=Times New Roman;rotation=0;" vertex="1" parent="1">
          <mxGeometry x="280" y="424.38" width="70" height="30" as="geometry" />
        </mxCell>
        <mxCell id="bEZxc9TnVDWhS3Ql7pLe-51" value="" style="shape=cube;whiteSpace=wrap;html=1;boundedLbl=1;backgroundOutline=1;darkOpacity=0.05;darkOpacity2=0.1;rotation=-90;opacity=75;shadow=1;flipH=1;size=6;fillStyle=auto;flipV=1;fillColor=#f9f7ed;strokeColor=#36393d;" vertex="1" parent="1">
          <mxGeometry x="700" y="287.81" width="80" height="22.5" as="geometry" />
        </mxCell>
        <mxCell id="bEZxc9TnVDWhS3Ql7pLe-52" value="15" style="text;html=1;align=center;verticalAlign=middle;whiteSpace=wrap;rounded=0;opacity=50;fillColor=none;fontFamily=Times New Roman;rotation=0;fontSize=10;" vertex="1" parent="1">
          <mxGeometry x="126" y="320.94" width="50" height="22.81" as="geometry" />
        </mxCell>
        <mxCell id="bEZxc9TnVDWhS3Ql7pLe-53" value="15" style="text;html=1;align=center;verticalAlign=middle;whiteSpace=wrap;rounded=0;opacity=50;fillColor=none;fontFamily=Times New Roman;rotation=0;fontSize=10;" vertex="1" parent="1">
          <mxGeometry x="140" y="250" width="50" height="22.81" as="geometry" />
        </mxCell>
        <mxCell id="bEZxc9TnVDWhS3Ql7pLe-55" value="64" style="text;html=1;align=center;verticalAlign=middle;whiteSpace=wrap;rounded=0;opacity=50;fillColor=none;fontFamily=Times New Roman;rotation=0;fontSize=10;" vertex="1" parent="1">
          <mxGeometry x="375" y="328.59" width="50" height="22.81" as="geometry" />
        </mxCell>
        <mxCell id="bEZxc9TnVDWhS3Ql7pLe-57" value="" style="endArrow=none;html=1;rounded=1;exitX=1;exitY=0.66;exitDx=0;exitDy=0;exitPerimeter=0;targetPerimeterSpacing=10;curved=0;fillColor=#f5f5f5;gradientColor=#b3b3b3;strokeColor=#000000;dashed=1;dashPattern=1 2;" edge="1" parent="1">
          <mxGeometry width="50" height="50" relative="1" as="geometry">
            <mxPoint x="80" y="312.5" as="sourcePoint" />
            <mxPoint x="160" y="286" as="targetPoint" />
          </mxGeometry>
        </mxCell>
        <mxCell id="bEZxc9TnVDWhS3Ql7pLe-63" value="" style="shape=cube;whiteSpace=wrap;html=1;boundedLbl=1;backgroundOutline=1;darkOpacity=0.05;darkOpacity2=0.1;rotation=0;fillColor=#d5e8d4;strokeColor=#82b366;opacity=75;shadow=1;flipH=1;size=6;fillStyle=auto;" vertex="1" parent="1">
          <mxGeometry x="295" y="291.09" width="10" height="22.5" as="geometry" />
        </mxCell>
        <mxCell id="bEZxc9TnVDWhS3Ql7pLe-70" value="" style="endArrow=none;html=1;rounded=1;exitX=1;exitY=0.66;exitDx=0;exitDy=0;exitPerimeter=0;targetPerimeterSpacing=10;curved=0;fillColor=#f5f5f5;gradientColor=#b3b3b3;strokeColor=#000000;dashed=1;dashPattern=1 2;" edge="1" parent="1">
          <mxGeometry width="50" height="50" relative="1" as="geometry">
            <mxPoint x="300" y="297" as="sourcePoint" />
            <mxPoint x="340" y="301" as="targetPoint" />
          </mxGeometry>
        </mxCell>
        <mxCell id="bEZxc9TnVDWhS3Ql7pLe-66" value="5" style="text;html=1;align=center;verticalAlign=middle;whiteSpace=wrap;rounded=0;opacity=50;fillColor=none;fontFamily=Times New Roman;rotation=0;fontSize=10;" vertex="1" parent="1">
          <mxGeometry x="320" y="263.59000000000003" width="50" height="22.81" as="geometry" />
        </mxCell>
        <mxCell id="bEZxc9TnVDWhS3Ql7pLe-68" value="64" style="text;html=1;align=center;verticalAlign=middle;whiteSpace=wrap;rounded=0;opacity=50;fillColor=none;fontFamily=Times New Roman;rotation=0;fontSize=10;" vertex="1" parent="1">
          <mxGeometry x="210" y="340.94" width="50" height="22.81" as="geometry" />
        </mxCell>
        <mxCell id="bEZxc9TnVDWhS3Ql7pLe-74" value="" style="shape=cube;whiteSpace=wrap;html=1;boundedLbl=1;backgroundOutline=1;darkOpacity=0.05;darkOpacity2=0.1;rotation=0;fillColor=#d5e8d4;strokeColor=#82b366;opacity=75;shadow=1;flipH=1;size=7;fillStyle=auto;flipV=0;" vertex="1" parent="1">
          <mxGeometry x="460" y="293" width="12.25" height="25" as="geometry" />
        </mxCell>
        <mxCell id="bEZxc9TnVDWhS3Ql7pLe-75" value="3" style="text;html=1;align=center;verticalAlign=middle;whiteSpace=wrap;rounded=0;opacity=50;fillColor=none;fontFamily=Times New Roman;rotation=0;fontSize=7;" vertex="1" parent="1">
          <mxGeometry x="295" y="282.81" width="5" height="13" as="geometry" />
        </mxCell>
        <mxCell id="bEZxc9TnVDWhS3Ql7pLe-76" value="3" style="text;html=1;align=center;verticalAlign=middle;whiteSpace=wrap;rounded=0;opacity=50;fillColor=none;fontFamily=Times New Roman;rotation=0;fontSize=7;" vertex="1" parent="1">
          <mxGeometry x="290" y="299" width="5" height="13" as="geometry" />
        </mxCell>
        <mxCell id="bEZxc9TnVDWhS3Ql7pLe-77" value="1" style="text;html=1;align=center;verticalAlign=middle;whiteSpace=wrap;rounded=0;opacity=50;fillColor=none;fontFamily=Times New Roman;rotation=0;fontSize=7;" vertex="1" parent="1">
          <mxGeometry x="460" y="315.59" width="5" height="13" as="geometry" />
        </mxCell>
        <mxCell id="bEZxc9TnVDWhS3Ql7pLe-78" value="3" style="text;html=1;align=center;verticalAlign=middle;whiteSpace=wrap;rounded=0;opacity=50;fillColor=none;fontFamily=Times New Roman;rotation=0;fontSize=7;" vertex="1" parent="1">
          <mxGeometry x="455" y="300.59000000000003" width="5" height="13" as="geometry" />
        </mxCell>
        <mxCell id="bEZxc9TnVDWhS3Ql7pLe-79" value="Conv-2D" style="text;html=1;align=center;verticalAlign=middle;whiteSpace=wrap;rounded=0;opacity=50;fillColor=none;fontFamily=Times New Roman;rotation=0;" vertex="1" parent="1">
          <mxGeometry x="60" y="424.38" width="60" height="30" as="geometry" />
        </mxCell>
        <mxCell id="bEZxc9TnVDWhS3Ql7pLe-94" style="edgeStyle=orthogonalEdgeStyle;rounded=0;orthogonalLoop=1;jettySize=auto;html=1;" edge="1" parent="1" source="bEZxc9TnVDWhS3Ql7pLe-80">
          <mxGeometry relative="1" as="geometry">
            <mxPoint x="640" y="299.06000000000006" as="targetPoint" />
          </mxGeometry>
        </mxCell>
        <mxCell id="bEZxc9TnVDWhS3Ql7pLe-80" value="" style="shape=cube;whiteSpace=wrap;html=1;boundedLbl=1;backgroundOutline=1;darkOpacity=0.05;darkOpacity2=0.1;rotation=0;fillColor=#dae8fc;strokeColor=#6c8ebf;opacity=75;shadow=1;flipH=1;size=10;" vertex="1" parent="1">
          <mxGeometry x="510" y="274.81" width="80" height="48.5" as="geometry" />
        </mxCell>
        <mxCell id="bEZxc9TnVDWhS3Ql7pLe-81" value="5" style="text;html=1;align=center;verticalAlign=middle;whiteSpace=wrap;rounded=0;opacity=50;fillColor=none;fontFamily=Times New Roman;rotation=0;fontSize=10;" vertex="1" parent="1">
          <mxGeometry x="480" y="308.68000000000006" width="50" height="22.81" as="geometry" />
        </mxCell>
        <mxCell id="bEZxc9TnVDWhS3Ql7pLe-82" value="3" style="text;html=1;align=center;verticalAlign=middle;whiteSpace=wrap;rounded=0;opacity=50;fillColor=none;fontFamily=Times New Roman;rotation=0;fontSize=10;" vertex="1" parent="1">
          <mxGeometry x="487" y="263.59000000000003" width="50" height="22.81" as="geometry" />
        </mxCell>
        <mxCell id="bEZxc9TnVDWhS3Ql7pLe-83" value="" style="endArrow=none;html=1;rounded=1;exitX=1;exitY=0.66;exitDx=0;exitDy=0;exitPerimeter=0;targetPerimeterSpacing=10;curved=0;fillColor=#f5f5f5;gradientColor=#b3b3b3;strokeColor=#000000;dashed=1;dashPattern=1 2;" edge="1" parent="1">
          <mxGeometry width="50" height="50" relative="1" as="geometry">
            <mxPoint x="466" y="300.68" as="sourcePoint" />
            <mxPoint x="510" y="305" as="targetPoint" />
          </mxGeometry>
        </mxCell>
        <mxCell id="bEZxc9TnVDWhS3Ql7pLe-84" value="" style="endArrow=none;html=1;rounded=1;exitX=1;exitY=0.66;exitDx=0;exitDy=0;exitPerimeter=0;targetPerimeterSpacing=10;curved=0;fillColor=#f5f5f5;gradientColor=#b3b3b3;strokeColor=#000000;dashed=1;dashPattern=1 2;entryX=0.391;entryY=-0.094;entryDx=0;entryDy=0;entryPerimeter=0;" edge="1" parent="1" target="bEZxc9TnVDWhS3Ql7pLe-81">
          <mxGeometry width="50" height="50" relative="1" as="geometry">
            <mxPoint x="466" y="318" as="sourcePoint" />
            <mxPoint x="510" y="321.32" as="targetPoint" />
          </mxGeometry>
        </mxCell>
        <mxCell id="bEZxc9TnVDWhS3Ql7pLe-85" value="" style="endArrow=none;html=1;rounded=1;exitX=1;exitY=0.66;exitDx=0;exitDy=0;exitPerimeter=0;targetPerimeterSpacing=10;curved=0;fillColor=#f5f5f5;gradientColor=#b3b3b3;strokeColor=#000000;dashed=1;dashPattern=1 2;entryX=0;entryY=0;entryDx=80;entryDy=29.25;entryPerimeter=0;" edge="1" parent="1" target="bEZxc9TnVDWhS3Ql7pLe-80">
          <mxGeometry width="50" height="50" relative="1" as="geometry">
            <mxPoint x="472.25" y="293" as="sourcePoint" />
            <mxPoint x="516.25" y="282.81" as="targetPoint" />
          </mxGeometry>
        </mxCell>
        <mxCell id="bEZxc9TnVDWhS3Ql7pLe-86" value="" style="endArrow=none;html=1;rounded=1;exitX=1;exitY=0.66;exitDx=0;exitDy=0;exitPerimeter=0;targetPerimeterSpacing=10;curved=0;fillColor=#f5f5f5;gradientColor=#b3b3b3;strokeColor=#000000;dashed=1;dashPattern=1 2;" edge="1" parent="1">
          <mxGeometry width="50" height="50" relative="1" as="geometry">
            <mxPoint x="472.25" y="311" as="sourcePoint" />
            <mxPoint x="510" y="305" as="targetPoint" />
          </mxGeometry>
        </mxCell>
        <mxCell id="bEZxc9TnVDWhS3Ql7pLe-88" value="Conv-2D" style="text;html=1;align=center;verticalAlign=middle;whiteSpace=wrap;rounded=0;opacity=50;fillColor=none;fontFamily=Times New Roman;rotation=0;" vertex="1" parent="1">
          <mxGeometry x="460" y="424.38" width="70" height="30" as="geometry" />
        </mxCell>
        <mxCell id="bEZxc9TnVDWhS3Ql7pLe-89" value="16" style="text;html=1;align=center;verticalAlign=middle;whiteSpace=wrap;rounded=0;opacity=50;fillColor=none;fontFamily=Times New Roman;rotation=0;fontSize=10;" vertex="1" parent="1">
          <mxGeometry x="525" y="318.13000000000005" width="50" height="22.81" as="geometry" />
        </mxCell>
        <mxCell id="bEZxc9TnVDWhS3Ql7pLe-91" value="" style="shape=cube;whiteSpace=wrap;html=1;boundedLbl=1;backgroundOutline=1;darkOpacity=0.05;darkOpacity2=0.1;rotation=-90;opacity=75;shadow=1;flipH=1;size=6;fillStyle=auto;flipV=1;fillColor=#f9f7ed;strokeColor=#36393d;" vertex="1" parent="1">
          <mxGeometry x="585" y="287.81" width="155" height="22.5" as="geometry" />
        </mxCell>
        <mxCell id="bEZxc9TnVDWhS3Ql7pLe-92" value="32" style="text;html=1;align=center;verticalAlign=middle;whiteSpace=wrap;rounded=0;opacity=50;fillColor=none;fontFamily=Times New Roman;rotation=0;fontSize=10;" vertex="1" parent="1">
          <mxGeometry x="635" y="290.00000000000006" width="50" height="22.81" as="geometry" />
        </mxCell>
        <mxCell id="bEZxc9TnVDWhS3Ql7pLe-93" value="8" style="text;html=1;align=center;verticalAlign=middle;whiteSpace=wrap;rounded=0;opacity=50;fillColor=none;fontFamily=Times New Roman;rotation=0;fontSize=10;" vertex="1" parent="1">
          <mxGeometry x="713" y="289" width="50" height="22.81" as="geometry" />
        </mxCell>
        <mxCell id="bEZxc9TnVDWhS3Ql7pLe-96" value="Dense" style="text;html=1;align=center;verticalAlign=middle;whiteSpace=wrap;rounded=0;opacity=50;fillColor=none;fontFamily=Times New Roman;rotation=0;" vertex="1" parent="1">
          <mxGeometry x="590" y="424.38" width="70" height="30" as="geometry" />
        </mxCell>
        <mxCell id="bEZxc9TnVDWhS3Ql7pLe-97" value="Dense" style="text;html=1;align=center;verticalAlign=middle;whiteSpace=wrap;rounded=0;opacity=50;fillColor=none;fontFamily=Times New Roman;rotation=0;" vertex="1" parent="1">
          <mxGeometry x="670" y="424.38" width="70" height="30" as="geometry" />
        </mxCell>
        <mxCell id="bEZxc9TnVDWhS3Ql7pLe-100" style="edgeStyle=orthogonalEdgeStyle;rounded=0;orthogonalLoop=1;jettySize=auto;html=1;entryX=0.14;entryY=0.544;entryDx=0;entryDy=0;entryPerimeter=0;" edge="1" parent="1" source="bEZxc9TnVDWhS3Ql7pLe-92" target="bEZxc9TnVDWhS3Ql7pLe-93">
          <mxGeometry relative="1" as="geometry" />
        </mxCell>
      </root>
    </mxGraphModel>
  </diagram>
</mxfile>
